<svg width="188" height="198" viewBox="0 0 188 198" fill="none" xmlns="http://www.w3.org/2000/svg">
<path d="M130.044 95.9503C136.149 91.1944 141.055 85.2814 144.421 78.6199C147.787 71.9584 149.534 64.707 149.541 57.3669V50.4773C149.161 37.2242 143.145 24.6307 132.774 15.3799C122.403 6.12905 108.497 0.952148 94.0191 0.952148C79.541 0.952148 65.6351 6.12905 55.2642 15.3799C44.8933 24.6307 38.8771 37.2242 38.4975 50.4773V57.3319C38.5042 64.6721 40.251 71.9234 43.6172 78.5849C46.9835 85.2465 51.8888 91.1594 57.9945 95.9153C41.3294 100.164 26.64 109.289 16.1685 121.897C5.69703 134.506 0.0186183 149.906 0 165.747V190.516C0 192.501 0.86109 194.404 2.39384 195.808C3.92659 197.212 6.00545 198 8.17308 198H179.827C181.995 198 184.073 197.212 185.606 195.808C187.139 194.404 188 192.501 188 190.516V165.747C187.975 149.917 182.299 134.528 171.835 121.927C161.372 109.326 146.695 100.203 130.044 95.9503V95.9503ZM54.8055 50.4861C54.8055 40.9789 58.9299 31.8611 66.2713 25.1386C73.6128 18.416 83.5699 14.6393 93.9523 14.6393C104.335 14.6393 114.292 18.416 121.633 25.1386C128.975 31.8611 133.099 40.9789 133.099 50.4861V57.3407C133.099 66.8478 128.975 75.9656 121.633 82.6882C114.292 89.4108 104.335 93.1875 93.9523 93.1875C83.5699 93.1875 73.6128 89.4108 66.2713 82.6882C58.9299 75.9656 54.8055 66.8478 54.8055 57.3407V50.4861ZM171.654 183.032H16.3462V165.747C16.3588 150.478 22.9916 135.838 34.7867 125.046C46.5817 114.253 62.5739 108.191 79.2484 108.191H108.847C125.507 108.212 141.477 114.283 153.253 125.074C165.03 135.864 171.651 150.491 171.663 165.747L171.654 183.032Z" fill="url(#paint0_linear_435_84)"/>
<defs>
<linearGradient id="paint0_linear_435_84" x1="0" y1="99.5" x2="188" y2="99.5" gradientUnits="userSpaceOnUse">
<stop stop-color="#20947A"/>
<stop offset="1" stop-color="#1D735E"/>
</linearGradient>
</defs>
</svg>
