<svg width="2016" height="1410" viewBox="0 0 2016 1410" fill="none" xmlns="http://www.w3.org/2000/svg">
<g clip-path="url(#clip0_4_21)">
<path d="M1731 1084.64C1685.93 984.917 1607.51 900.337 1520.02 827.687C1455.71 774.287 1385.59 726.097 1329.29 665.687C1243.1 573.167 1234.33 448.357 1139.81 360.167C1047.52 273.997 894.292 270.297 775.404 304.727C719.2 320.997 662.414 344.827 603.946 337.817C540.202 330.157 489.377 287.817 434.139 257.817C327.941 200.087 193.89 187.207 76.559 222.737C50.0709 230.775 24.436 241.219 0 253.927L0 1410.34H1730.74C1732.69 1406.72 1734.59 1403.03 1736.44 1399.27C1784.9 1300.88 1776.08 1184.35 1731 1084.64Z" fill="url(#paint0_linear_4_21)"/>
</g>
<defs>
<linearGradient id="paint0_linear_4_21" x1="0" y1="806.667" x2="1769" y2="806.667" gradientUnits="userSpaceOnUse">
<stop stop-color="#046267"/>
<stop offset="1" stop-color="#145C4B"/>
</linearGradient>
<clipPath id="clip0_4_21">
<rect width="2016" height="1410" fill="white"/>
</clipPath>
</defs>
</svg>
