<svg width="512" height="512" viewBox="0 0 512 512" fill="none" xmlns="http://www.w3.org/2000/svg">
<path d="M311.848 290.168L447.7 426.02C486.235 382.797 508.68 328.602 512.001 270.79H319.876C318.27 277.653 315.567 284.18 311.848 290.168V290.168Z" fill="#229379"/>
<path d="M256.223 321.164C220.168 321.164 190.832 291.832 190.832 255.777C190.832 224.887 212.371 198.949 241.211 192.145V0C178.418 3.60547 119.883 29.7617 75.0469 74.5977C26.6523 122.992 0 187.336 0 255.777C0 324.215 26.6523 388.559 75.0469 436.953C123.441 485.348 187.785 512 256.223 512C319.633 512 379.52 489.105 426.469 447.254L290.613 311.398C280.383 317.754 268.566 321.164 256.223 321.164V321.164Z" fill="#229379"/>
<path d="M319.856 240.762H512C508.395 177.969 482.239 119.438 437.399 74.5977C392.563 29.7617 334.032 3.60547 271.235 0V192.145C295.254 197.813 314.188 216.746 319.856 240.762V240.762Z" fill="#229379"/>
</svg>
