<svg width="513" height="390" viewBox="0 0 513 390" fill="none" xmlns="http://www.w3.org/2000/svg">
<path d="M509.825 187.312L379.154 56.6412C375.091 52.5779 367.902 52.5779 363.838 56.6412L335.509 84.9707C331.278 89.202 331.278 96.0609 335.509 100.292L430.195 194.967L335.514 289.659C331.283 293.89 331.283 300.749 335.514 304.981L363.844 333.31C365.875 335.342 368.633 336.49 371.504 336.49C374.37 336.49 377.133 335.342 379.165 333.31L509.825 202.644C514.056 198.408 514.056 191.543 509.825 187.312Z" fill="#229379"/>
<path d="M178.48 289.659L83.8105 194.978L178.497 100.303C180.528 98.2713 181.671 95.5191 181.671 92.6423C181.671 89.7709 180.534 87.0132 178.497 84.9816L150.167 56.6521C148.136 54.6204 145.378 53.4773 142.507 53.4773C139.635 53.4773 136.877 54.6204 134.846 56.6521L4.16942 187.312C-0.0618461 191.543 -0.0618461 198.402 4.16942 202.639L134.84 333.305C136.872 335.336 139.63 336.485 142.501 336.485C145.372 336.485 148.13 335.336 150.162 333.305L178.491 304.975C182.723 300.749 182.723 293.89 178.48 289.659Z" fill="#229379"/>
<path d="M331.305 12.6815C329.928 10.1568 327.61 8.28229 324.857 7.46962L301.892 0.692007C296.16 -1.00917 290.124 2.27941 288.434 8.01682L181.818 369.073C181.005 371.83 181.319 374.794 182.69 377.313C184.061 379.843 186.385 381.712 189.137 382.53L212.103 389.308C213.127 389.611 214.162 389.758 215.175 389.758C219.85 389.758 224.168 386.702 225.561 381.983L332.177 20.9219C332.99 18.1643 332.681 15.2008 331.305 12.6815Z" fill="#229379"/>
</svg>
