<svg width="807" height="1205" viewBox="0 0 807 1205" fill="none" xmlns="http://www.w3.org/2000/svg">
<rect width="807" height="1205" fill="#F5F5F5"/>
<g id="IPHONE COMPLETO 1" clip-path="url(#clip0_0_1)">
<g id="Group">
<g id="SVGPhone">
<g id="Phone">
<path id="Vector" style="mix-blend-mode:multiply" d="M639.24 1202.78L129.85 924.59C111.45 914.46 131.33 868.79 174.02 823.1C216.71 777.4 266.7 748.3 285.1 758.42L794.49 1036.62C812.89 1046.74 793.01 1092.41 750.32 1138.11C707.63 1183.8 657.64 1212.9 639.24 1202.78Z" fill="url(#paint0_linear_0_1)"/>
<path id="Vector_2" d="M747.94 182.48L442.71 9.70003C420.6 -2.80997 396.24 -3.23996 374.11 8.49004C349.25 21.68 331.79 48.49 326.2 82.09L325.51 86.26L203.71 818.38L203.02 822.55C198.92 847.17 202.39 873.55 211.3 896.46C221.3 924.09 238.62 947.46 260.53 959.89L565.76 1132.66C576.103 1138.81 587.869 1142.15 599.899 1142.37C611.93 1142.58 623.807 1139.65 634.36 1133.87C659.22 1120.69 676.68 1093.87 682.27 1060.27L804.76 323.98C814.11 267.95 789.11 205.79 747.94 182.48Z" fill="white"/>
<path id="Vector_3" d="M804.76 323.98L682.27 1060.28C676.69 1093.87 659.27 1120.69 634.35 1133.87C624.804 1139.04 614.197 1141.93 603.35 1142.34C602.66 1142.34 601.96 1142.34 601.27 1142.34C588.79 1142.25 576.549 1138.9 565.76 1132.63L515.76 1104.32L260.53 959.9C238.63 947.51 221.3 924.09 211.29 896.48C202.4 873.59 198.93 847.19 203.02 822.56L203.72 818.39L325.51 86.26L326.21 82.08C326.83 78.38 327.57 74.78 328.49 71.26C335.72 42.78 351.98 20.26 374.1 8.49003C396.22 -3.27997 420.59 -2.80998 442.71 9.70002L747.92 182.47C789.11 205.79 814.11 267.9 804.76 323.98Z" fill="white"/>
<path id="Vector_4" d="M757.85 281.21C757.79 280.83 757.74 280.45 757.67 280.07C757.6 279.69 757.48 279.13 757.39 278.66C756.339 273.101 754.949 267.61 753.23 262.22C752.85 261.05 752.45 259.88 752.04 258.71C751.95 258.43 751.86 258.15 751.76 257.87C742.51 231.87 725.81 209.15 704.95 197.15L481.95 69L440.1 45L421.88 34.54C421.21 34.16 420.55 33.83 419.88 33.48C418.79 32.89 417.7 32.34 416.62 31.84C415.7 31.4 414.77 30.96 413.86 30.58C412.95 30.2 412.28 29.96 411.49 29.66C411.33 29.61 411.18 29.54 411.02 29.48C410.42 29.26 409.82 29.07 409.22 28.88L408 28.48L406.35 28.02L405.03 27.67L403.43 27.3L402.11 27C401.58 26.9 401.06 26.81 400.53 26.73L399.19 26.54C398.67 26.47 398.19 26.4 397.63 26.35C397.07 26.3 396.75 26.28 396.3 26.25C395.85 26.22 395.3 26.16 394.76 26.14C394.22 26.12 393.95 26.14 393.55 26.14C391.613 26.1057 389.676 26.1925 387.75 26.4L387.1 26.47C385.67 26.64 384.27 26.87 382.88 27.17H382.82C381.45 27.47 380.11 27.84 378.82 28.27L378.3 28.43C376.97 28.88 375.66 29.43 374.38 29.94L373.99 30.12C372.77 30.67 371.58 31.28 370.4 31.94L370.06 32.13C368.84 32.83 367.65 33.59 366.48 34.41L365.95 34.78C364.81 35.61 363.68 36.48 362.59 37.42H362.54C361.44 38.37 360.38 39.42 359.33 40.42C359.15 40.6 358.98 40.79 358.8 40.98C356.697 43.1932 354.774 45.5708 353.05 48.09L352.6 48.75C351.73 50.05 350.9 51.39 350.1 52.75L349.86 53.2C349.12 54.5333 348.42 55.8967 347.76 57.29C347.65 57.5 347.55 57.71 347.45 57.93C346.75 59.4367 346.083 60.9967 345.45 62.61L345.18 63.36C344.587 64.92 344.04 66.5267 343.54 68.18C343.54 68.29 343.47 68.4 343.43 68.51C342.91 70.25 342.43 72.05 342.01 73.89L341.8 74.79C341.38 76.66 340.99 78.56 340.67 80.52L283.3 424.9L273.11 486.24L266.42 525.96L262.26 550.96L251.37 616.29L236.8 703.75L229.53 747.4L217.07 821.81C216.87 822.95 216.7 824.08 216.58 825.22C216.58 825.35 216.58 825.48 216.58 825.62C216.47 826.47 216.38 827.33 216.29 828.19C216.2 829.05 216.15 829.64 216.09 830.37C215.97 831.94 215.87 833.51 215.82 835.08V835.56V835.65C215.82 836.4 215.82 837.15 215.77 837.91C215.77 838.23 215.77 838.56 215.77 838.91C215.77 839.26 215.77 839.91 215.77 840.35C215.77 840.79 215.77 841.07 215.77 841.43V841.53C215.77 843.53 215.88 845.53 216 847.53C216 848.15 216.11 848.78 216.16 849.41C216.24 850.41 216.3 851.41 216.41 852.41C216.41 852.78 216.5 853.15 216.54 853.52C216.54 853.74 216.54 853.95 216.6 854.16C216.65 854.61 216.73 855.05 216.79 855.49C216.98 857.06 217.21 858.62 217.46 860.18L217.73 861.86C217.8 862.22 217.85 862.58 217.91 862.95C218.2 864.46 218.51 865.95 218.84 867.5C219 868.2 219.17 868.9 219.34 869.61C219.51 870.32 219.65 870.98 219.81 871.61C219.92 872.01 220.05 872.41 220.16 872.82C220.6 874.513 221.073 876.18 221.58 877.82C221.82 878.63 222.06 879.44 222.32 880.25C222.86 881.917 223.43 883.583 224.03 885.25C224.31 886.02 224.58 886.8 224.87 887.57C225.53 889.28 226.23 890.97 226.95 892.65C227.24 893.31 227.5 893.99 227.79 894.65C228.763 896.823 229.783 898.953 230.85 901.04C231.07 901.47 231.3 901.89 231.52 902.31C232.52 904.19 233.52 906.05 234.59 907.86C235.16 908.86 235.78 909.78 236.37 910.74C236.96 911.7 237.73 912.94 238.45 914C239.17 915.06 239.91 916.11 240.65 917.15C241.39 918.19 241.93 918.95 242.59 919.82C243.41 920.9 244.25 921.95 245.1 922.99C245.73 923.77 246.36 924.53 247.01 925.28C247.46 925.81 247.88 926.37 248.34 926.89L250.34 928.98C250.66 929.32 250.99 929.64 251.34 929.98C252.513 931.2 253.707 932.373 254.92 933.5C255.32 933.88 255.74 934.24 256.15 934.61C256.56 934.98 257.2 935.61 257.74 936.05C258.28 936.49 258.82 936.93 259.36 937.37C259.9 937.81 260.26 938.12 260.72 938.48C262.09 939.57 263.48 940.62 264.91 941.59L265.66 942.12C267.3 943.24 268.96 944.28 270.66 945.27L274.66 947.55L325.25 976.63L339.38 984.73L339.78 984.96L344.89 987.9L392.89 1015.56H392.94L393.78 1016.06L415.85 1028.9L425.36 1034.38L426.26 1034.9L438.68 1042.04L445.41 1045.88L446.86 1046.71L450.16 1048.6L452.16 1049.75L455.51 1051.68L487.11 1069.82L518.67 1087.9L529.67 1094.24L549.9 1105.9L553.55 1108C555.09 1108.89 556.65 1109.7 558.21 1110.44C558.76 1110.71 559.32 1110.94 559.87 1111.18C561.04 1111.71 562.21 1112.24 563.38 1112.7L563.67 1112.8C564.73 1113.2 565.79 1113.56 566.85 1113.89C567.33 1114.05 567.85 1114.18 568.3 1114.32C568.94 1114.5 569.59 1114.68 570.23 1114.84C570.5 1114.91 570.77 1115 571.04 1115.06C571.46 1115.16 571.87 1115.23 572.29 1115.32L573.06 1115.47L574.12 1115.69C574.226 1115.68 574.334 1115.68 574.44 1115.69C574.68 1115.69 574.93 1115.75 575.18 1115.79L576.74 1116L577.24 1116.07C577.37 1116.07 577.49 1116.07 577.61 1116.07C578.43 1116.15 579.25 1116.21 580.06 1116.26H580.3C580.3 1116.26 580.3 1116.26 580.38 1116.26H580.47C581.24 1116.26 582.02 1116.26 582.78 1116.26H583.32H583.61C586.389 1116.2 589.157 1115.9 591.88 1115.34L592.49 1115.24L593.04 1115.1L594.22 1114.8L594.63 1114.7L594.87 1114.62C595.66 1114.4 596.44 1114.17 597.21 1113.91L598.43 1113.48C598.86 1113.33 599.29 1113.15 599.72 1112.98L601.09 1112.44C601.098 1112.43 601.11 1112.41 601.124 1112.41C601.138 1112.4 601.154 1112.39 601.17 1112.39L601.43 1112.26L601.61 1112.18C602.16 1111.93 602.71 1111.67 603.25 1111.4L603.68 1111.16C604.68 1110.61 605.75 1110.03 606.76 1109.4L607.1 1109.21C607.137 1109.16 607.185 1109.13 607.24 1109.1C607.76 1108.76 608.24 1108.41 608.81 1108.1L609.02 1107.96L609.16 1107.86C609.28 1107.78 609.39 1107.68 609.51 1107.59C610.42 1106.93 611.32 1106.22 612.2 1105.48L612.69 1105.11L612.86 1104.95C612.95 1104.88 613.02 1104.79 613.1 1104.72C614.207 1103.75 615.283 1102.72 616.33 1101.63L616.41 1101.54C617.03 1100.89 617.64 1100.24 618.23 1099.54C618.69 1099.01 619.15 1098.47 619.6 1097.91L619.66 1097.83C620.13 1097.25 620.58 1096.64 621.03 1096.03L621.13 1095.91C621.523 1095.39 621.903 1094.86 622.27 1094.32L622.59 1093.87C622.76 1093.62 622.92 1093.34 623.1 1093.08L623.79 1092.01L624 1091.69C624.16 1091.43 624.3 1091.15 624.46 1090.89C624.84 1090.25 625.22 1089.61 625.58 1088.95C625.82 1088.52 626.05 1088.08 626.28 1087.64C626.66 1086.92 627.03 1086.19 627.39 1085.45L627.63 1084.96C627.72 1084.76 627.81 1084.55 627.91 1084.34C628.16 1083.81 628.4 1083.27 628.64 1082.72C628.64 1082.64 628.71 1082.56 628.75 1082.47C628.88 1082.19 628.98 1081.9 629.1 1081.61C629.65 1080.3 630.16 1078.96 630.65 1077.61C630.65 1077.47 630.76 1077.33 630.8 1077.19C631.01 1076.58 631.21 1075.96 631.41 1075.34C631.5 1075.05 631.6 1074.76 631.69 1074.47C631.69 1074.36 631.75 1074.25 631.79 1074.13C631.99 1073.47 632.18 1072.8 632.37 1072.13L632.52 1071.61C632.62 1071.27 632.7 1070.92 632.79 1070.61C633.3 1068.66 633.79 1066.67 634.14 1064.61C634.27 1063.93 634.4 1063.26 634.53 1062.55C634.563 1062.42 634.586 1062.28 634.6 1062.14C634.626 1062.06 634.643 1061.97 634.65 1061.88L646.38 991.53L702.73 653.9L716.01 574.3L743.31 410.42L758.31 320.65C760.33 307.568 760.175 294.242 757.85 281.21V281.21Z" fill="url(#paint1_linear_0_1)"/>
</g>
<g id="BG1" style="mix-blend-mode:multiply">
<path d="M644.11 345.48L629.11 435.25L601.8 599.13L588.51 678.78L532.22 1016.25L520.5 1086.62C520.491 1086.71 520.467 1086.79 520.43 1086.87C520.421 1087.01 520.405 1087.15 520.38 1087.29C520.25 1087.99 520.11 1088.66 519.98 1089.35C519.58 1091.35 519.14 1093.35 518.64 1095.35C518.54 1095.69 518.47 1096.04 518.37 1096.35L518.22 1096.87L517.62 1098.87C517.602 1098.99 517.568 1099.11 517.52 1099.22C517.45 1099.49 517.35 1099.79 517.25 1100.09C517.05 1100.71 516.85 1101.33 516.63 1101.93L516.48 1102.35C516.26 1102.99 516.01 1103.64 515.76 1104.26L260.53 959.9C238.63 947.51 221.3 924.09 211.29 896.48C202.4 873.59 198.93 847.19 203.02 822.56L203.72 818.39L325.51 86.26L326.21 82.08C326.83 78.38 327.57 74.78 328.49 71.26L367.75 93.83L590.75 221.98C611.61 233.98 628.32 256.74 637.56 282.71L637.86 283.53C638.25 284.7 638.68 285.87 639.05 287.06C640.765 292.45 642.148 297.94 643.19 303.5L643.49 304.91C643.49 305.28 643.59 305.66 643.67 306.03C645.983 319.067 646.132 332.395 644.11 345.48Z" fill="#BFD3EF"/>
</g>
<g id="BG2">
<path id="Vector_5" d="M594.4 340.52L579.4 430.28L552.11 594.16L538.82 673.82L482.53 1011.29L470.81 1081.65C470.802 1081.74 470.778 1081.82 470.74 1081.9C470.749 1082.04 470.749 1082.19 470.74 1082.33C470.61 1083.02 470.46 1083.69 470.34 1084.39C469.94 1086.39 469.5 1088.39 469 1090.39C468.9 1090.74 468.83 1091.09 468.73 1091.39L468.58 1091.91L467.98 1093.91C467.961 1094.03 467.927 1094.14 467.88 1094.25C467.81 1094.53 467.71 1094.82 467.61 1095.12C467.41 1095.74 467.21 1096.36 466.99 1096.96V1097.01L466.84 1097.43C466.34 1098.82 465.82 1100.16 465.28 1101.43C465.15 1101.73 465.05 1102.03 464.93 1102.3C464.93 1102.4 464.85 1102.48 464.83 1102.55L464.08 1104.17C463.98 1104.39 463.91 1104.59 463.81 1104.79C463.71 1104.99 463.64 1105.11 463.56 1105.28C463.21 1106.03 462.84 1106.75 462.47 1107.47C462.22 1107.92 462 1108.36 461.77 1108.78C461.4 1109.45 461.03 1110.08 460.63 1110.72L460.19 1111.52C460.11 1111.64 460.04 1111.74 459.96 1111.84C459.74 1112.21 459.51 1112.56 459.27 1112.91C459.03 1113.26 458.94 1113.45 458.77 1113.7L458.45 1114.15C458.07 1114.69 457.7 1115.22 457.3 1115.74C457.274 1115.79 457.241 1115.83 457.2 1115.86C456.75 1116.48 456.31 1117.08 455.83 1117.67L455.76 1117.75C455.31 1118.29 454.87 1118.84 454.39 1119.39C453.91 1119.94 453.2 1120.73 452.58 1121.39L452.51 1121.47C451.51 1122.56 450.4 1123.6 449.28 1124.57L449.06 1124.79L448.86 1124.94C448.712 1125.08 448.555 1125.2 448.39 1125.32C447.52 1126.06 446.6 1126.78 445.68 1127.43C445.578 1127.53 445.464 1127.62 445.34 1127.7C445.306 1127.74 445.261 1127.78 445.21 1127.8L444.99 1127.95L443.42 1128.95C443.366 1128.98 443.318 1129.02 443.28 1129.07C443.164 1129.12 443.053 1129.18 442.95 1129.25C441.95 1129.89 440.95 1130.47 439.87 1131.01C439.73 1131.09 439.58 1131.19 439.43 1131.26C438.91 1131.53 438.36 1131.78 437.79 1132.03L437.61 1132.13L437.37 1132.23C437.37 1132.23 437.32 1132.23 437.27 1132.3L435.9 1132.82L434.61 1133.35L433.39 1133.77C432.62 1134.02 431.85 1134.26 431.06 1134.49C430.98 1134.49 430.91 1134.49 430.81 1134.49C430.71 1134.49 430.54 1134.56 430.41 1134.61L429.22 1134.91C429.044 1134.97 428.863 1135.01 428.68 1135.03C428.483 1135.08 428.282 1135.11 428.08 1135.13C425.359 1135.7 422.59 1136.01 419.81 1136.05H419.51H418.97C418.2 1136.05 417.43 1136.05 416.66 1136.05H416.56C416.56 1136.05 416.56 1136.05 416.48 1136.05C416.4 1136.05 416.33 1136.05 416.24 1136.05C415.44 1136.05 414.62 1135.95 413.8 1135.85C413.677 1135.86 413.553 1135.86 413.43 1135.85L412.93 1135.77C412.41 1135.77 411.93 1135.65 411.37 1135.58C411.12 1135.58 410.87 1135.58 410.62 1135.48C410.514 1135.46 410.406 1135.46 410.3 1135.48C409.95 1135.43 409.61 1135.33 409.3 1135.28C408.99 1135.23 408.78 1135.15 408.53 1135.1C408.11 1135.03 407.68 1134.96 407.26 1134.86L406.47 1134.63C405.82 1134.48 405.18 1134.28 404.53 1134.11C404.03 1133.96 403.53 1133.84 403.09 1133.69C402.02 1133.37 400.96 1132.99 399.89 1132.6C399.802 1132.55 399.708 1132.52 399.61 1132.5C398.45 1132.03 397.26 1131.5 396.09 1130.98C395.54 1130.73 395 1130.51 394.43 1130.24C392.89 1129.49 391.32 1128.7 389.78 1127.78L386.13 1125.69L365.87 1114.07L354.87 1107.74L323.32 1089.62L291.73 1071.51L288.38 1069.58L286.38 1068.44L283.08 1066.53L281.64 1065.71L274.81 1061.9L262.39 1054.77L261.47 1054.25L251.96 1048.76L229.74 1036L228.9 1035.51H228.85L180.8 1007.85L175.68 1004.92L175.29 1004.7L161.18 996.58L110.58 967.5L106.63 965.22C104.917 964.247 103.25 963.193 101.63 962.06C101.39 961.91 101.14 961.71 100.89 961.54C99.47 960.54 98.06 959.54 96.69 958.44C96.25 958.06 95.8 957.69 95.33 957.32C94.86 956.95 94.26 956.45 93.71 956C93.16 955.55 92.71 955 92.13 954.56C91.55 954.12 91.31 953.84 90.91 953.45C89.69 952.33 88.5 951.16 87.31 949.95L86.31 948.95C85.66 948.28 84.99 947.56 84.31 946.86C83.84 946.34 83.41 945.79 82.97 945.25C82.32 944.5 81.7 943.73 81.06 942.96C80.21 941.96 79.37 940.88 78.55 939.78C77.9 938.92 77.26 938.02 76.61 937.13C75.87 936.08 75.12 935.04 74.4 933.97C73.68 932.9 73.01 931.81 72.34 930.72C71.67 929.63 71.12 928.81 70.55 927.84C69.48 926.03 68.47 924.17 67.47 922.28L66.8 921.01C65.73 918.93 64.72 916.79 63.75 914.63C63.45 913.96 63.2 913.29 62.9 912.63C62.18 910.95 61.4867 909.257 60.82 907.55C60.55 906.77 60.27 906.01 60 905.24C59.4 903.57 58.81 901.93 58.29 900.24C58.01 899.42 57.79 898.63 57.54 897.81C57.04 896.14 56.54 894.45 56.13 892.81C56 892.38 55.88 891.99 55.78 891.59C55.6 890.92 55.45 890.22 55.31 889.53C55.17 888.84 54.96 888.14 54.81 887.44C54.46 885.93 54.16 884.44 53.87 882.87C53.82 882.53 53.77 882.15 53.69 881.78C53.59 881.23 53.52 880.66 53.42 880.12C53.17 878.55 52.95 876.99 52.75 875.42C52.7 874.98 52.6 874.53 52.55 874.11C52.55 873.88 52.55 873.66 52.5 873.46C52.45 873.09 52.4 872.72 52.38 872.35C52.25 871.35 52.2 870.35 52.13 869.35C52.13 868.73 52 868.1 51.95 867.46C51.83 865.46 51.7566 863.46 51.73 861.46V857.85C51.73 857.11 51.73 856.34 51.78 855.6V855.5C51.7906 855.34 51.7906 855.18 51.78 855.02C51.86 853.46 51.93 851.87 52.08 850.31C52.13 849.59 52.21 848.87 52.28 848.12C52.35 847.37 52.46 846.41 52.55 845.56C52.55 845.44 52.55 845.29 52.6 845.17C52.73 844.02 52.9 842.88 53.08 841.76L53.45 839.48L65.54 767.35L72.82 723.7L82.05 668.27L87.39 636.27L90.79 615.81L98.29 570.94L102.44 545.94L109.14 506.23L119.35 444.93L119.4 444.58L128.23 391.9L156.76 220.64L176.76 100.46C177.08 98.4601 177.45 96.6201 177.87 94.7501C177.95 94.4501 178.02 94.1301 178.1 93.8301C178.52 92.0034 178.99 90.2167 179.51 88.4701C179.51 88.3501 179.59 88.2501 179.61 88.1501C180.13 86.4834 180.677 84.8701 181.25 83.3101C181.353 83.065 181.443 82.8147 181.52 82.5601C182.14 80.9501 182.82 79.3801 183.52 77.8901C183.62 77.6701 183.72 77.4501 183.82 77.2501C184.49 75.8301 185.18 74.4701 185.93 73.1501C186.002 72.9939 186.085 72.8435 186.18 72.7C186.97 71.31 187.79 69.97 188.66 68.7C188.81 68.47 188.98 68.2701 189.13 68.0501C190.847 65.5215 192.766 63.1369 194.87 60.92C195.04 60.75 195.22 60.5501 195.41 60.3801C196.46 59.3101 197.5 58.2901 198.62 57.3801C198.62 57.3801 198.62 57.3801 198.67 57.3301C199.76 56.3901 200.88 55.52 202.02 54.7L202.54 54.3201C203.71 53.5101 204.9 52.7401 206.12 52.0401C206.238 51.9816 206.352 51.9147 206.46 51.8401C207.66 51.2001 208.85 50.6001 210.06 50.0301C210.19 49.9801 210.31 49.9001 210.44 49.8601C211.73 49.2801 213.04 48.7901 214.36 48.3401L214.91 48.1901C216.221 47.7404 217.556 47.3665 218.91 47.0701H218.96C220.35 46.7801 221.76 46.5301 223.18 46.3501C223.4 46.3501 223.63 46.3501 223.85 46.3501C225.769 46.1389 227.7 46.0487 229.63 46.0801C230.03 46.0801 230.45 46.0801 230.85 46.0801C231.25 46.0801 231.85 46.1501 232.39 46.1801C232.93 46.2101 233.29 46.2501 233.73 46.2701C234.17 46.2901 234.73 46.4001 235.27 46.4701C235.81 46.5401 236.17 46.6 236.61 46.67C237.05 46.74 237.68 46.85 238.2 46.95C238.72 47.05 239.1 47.1201 239.54 47.2201C239.98 47.3201 240.61 47.4401 241.16 47.5701C241.71 47.7001 242.03 47.8101 242.47 47.9101C242.91 48.0101 243.56 48.21 244.11 48.39C244.66 48.57 244.93 48.6601 245.35 48.7801L247.14 49.3801C247.29 49.4501 247.46 49.5001 247.61 49.5801C248.41 49.8501 249.2 50.1501 249.97 50.4701C250.89 50.8701 251.81 51.3201 252.75 51.7401C253.69 52.1601 254.91 52.8101 256 53.3801C256.65 53.7201 257.32 54.0701 258 54.4401L276.23 64.9001L318.11 88.9001L541.11 217.01C561.97 229.01 578.68 251.78 587.92 277.75L588.22 278.57C588.61 279.73 589.03 280.9 589.41 282.09C591.124 287.481 592.506 292.971 593.55 298.53L593.85 299.95C593.85 300.32 593.95 300.69 594.03 301.06C596.32 314.104 596.445 327.436 594.4 340.52Z" fill="url(#paint2_linear_0_1)"/>
<path id="Vector_6" d="M591.56 357.53L594.4 340.53C596.43 327.449 596.285 314.123 593.97 301.09C593.91 300.71 593.86 300.33 593.79 299.95C593.72 299.57 593.6 299.01 593.51 298.54C592.46 292.98 591.07 287.49 589.35 282.1C588.97 280.92 588.57 279.75 588.16 278.59C588.07 278.31 587.98 278.02 587.88 277.75C578.63 251.75 561.93 229.03 541.07 217.02L318.11 88.9L276.26 64.9L258.04 54.43C257.37 54.05 256.71 53.73 256.04 53.37C254.95 52.79 253.86 52.24 252.78 51.73C251.86 51.3 250.93 50.85 250.02 50.47C249.11 50.09 248.44 49.85 247.65 49.56C247.49 49.5 247.34 49.43 247.18 49.38C246.58 49.16 245.98 48.97 245.38 48.77C244.98 48.64 244.57 48.5 244.16 48.38C243.75 48.26 243.06 48.06 242.51 47.91L241.19 47.56L239.59 47.2C239.137 47.1 238.687 47.01 238.24 46.93C237.71 46.83 237.19 46.73 236.66 46.65L235.32 46.46L233.76 46.27L232.43 46.17C231.92 46.17 231.43 46.09 230.89 46.07C230.35 46.05 230.08 46.07 229.68 46.07C227.743 46.0324 225.806 46.1159 223.88 46.32L223.23 46.4C221.812 46.5619 220.404 46.7955 219.01 47.1H218.95C217.58 47.4 216.24 47.78 214.95 48.2L214.43 48.37C213.1 48.81 211.79 49.31 210.51 49.88C210.38 49.88 210.25 50 210.12 50.06C208.9 50.61 207.71 51.21 206.53 51.87L206.19 52.06C204.97 52.76 203.78 53.52 202.61 54.34L202.08 54.72C200.94 55.54 199.81 56.41 198.72 57.35H198.67C197.57 58.3 196.5 59.35 195.46 60.35C195.28 60.54 195.1 60.72 194.93 60.91C192.832 63.1274 190.909 65.5045 189.18 68.02L188.73 68.69C187.857 69.9767 187.023 71.31 186.23 72.69L185.99 73.15C185.25 74.46 184.55 75.83 183.89 77.23L183.58 77.87C182.88 79.38 182.22 80.95 181.58 82.56L181.31 83.3C180.72 84.87 180.17 86.47 179.67 88.13L179.56 88.45C179.04 90.2034 178.567 92 178.14 93.84L177.93 94.73C177.51 96.6 177.12 98.5 176.8 100.46L174.8 112.34L591.56 357.53Z" fill="url(#paint3_linear_0_1)"/>
</g>
<g id="Window1">
<path id="Vector_7" d="M457.97 577.03L70.6599 352.25L97.6899 180.13L485.01 404.91L457.97 577.03Z" fill="white"/>
<path id="Vector_8" d="M395.26 493.27C395.791 489.876 397.149 486.665 399.214 483.92C401.278 481.175 403.987 478.98 407.1 477.528C410.214 476.077 413.636 475.413 417.067 475.597C420.497 475.78 423.829 476.805 426.77 478.58L431.02 481.15C436.333 484.358 440.571 489.076 443.191 494.703C445.811 500.329 446.695 506.609 445.73 512.74L445.62 513.46C445.088 516.853 443.729 520.063 441.663 522.807C439.598 525.551 436.889 527.745 433.776 529.195C430.663 530.645 427.241 531.308 423.811 531.124C420.382 530.94 417.05 529.915 414.11 528.14L410.48 525.95C404.984 522.631 400.601 517.75 397.89 511.929C395.18 506.109 394.264 499.613 395.26 493.27V493.27Z" fill="#5BBDB0"/>
<path id="Vector_9" d="M431.21 505.71L423.54 501.75L424.88 493.08L421.04 491.1L419.7 499.76L412.02 495.8L411.35 500.14L419.03 504.1L417.69 512.77L421.53 514.75L422.87 506.08L430.55 510.04L431.21 505.71Z" fill="white"/>
<path id="Vector_10" d="M165.59 407.34L70.6599 352.25L97.6899 180.13L192.62 235.22L165.59 407.34Z" fill="#8BCBBA"/>
<path id="Vector_11" d="M248.98 329.44C248.882 329.426 248.79 329.388 248.71 329.33L204.41 303.62C202.82 302.7 201.03 298.16 201.82 293.12C202.4 289.4 203.94 288.12 204.3 288.12C204.398 288.134 204.49 288.172 204.57 288.23L248.87 313.94C250.46 314.86 252.25 319.41 251.46 324.45C250.88 328.2 249.34 329.44 248.98 329.44Z" fill="#B0B0AF"/>
<path id="Vector_12" d="M319.98 419.45C319.164 418.123 318.888 416.534 319.21 415.01C319.268 414.584 319.378 414.168 319.54 413.77L342.76 427.24C343.576 428.567 343.851 430.156 343.53 431.68C343.474 432.11 343.36 432.531 343.19 432.93L319.98 419.45Z" fill="#D5DBF0"/>
<path id="Vector_13" d="M251.46 407.23C250.644 405.903 250.369 404.314 250.69 402.79C250.748 402.365 250.858 401.948 251.02 401.55L265.38 409.9C266.196 411.227 266.472 412.816 266.15 414.34C266.093 414.766 265.982 415.182 265.82 415.58L251.46 407.23Z" fill="#D5DBF0"/>
<path id="Vector_14" d="M359.22 442.23C358.406 440.899 358.131 439.307 358.45 437.78C358.509 437.355 358.62 436.938 358.78 436.54L373.11 444.9C373.926 446.23 374.202 447.823 373.88 449.35C373.818 449.776 373.704 450.192 373.54 450.59L359.22 442.23Z" fill="#D5DBF0"/>
<path id="Vector_15" d="M263.02 386.4C262.205 385.069 261.929 383.477 262.25 381.95C262.307 381.523 262.421 381.106 262.59 380.71L302.25 403.71C303.065 405.041 303.344 406.631 303.03 408.16C302.964 408.585 302.85 409.001 302.69 409.4L263.02 386.4Z" fill="#D5DBF0"/>
<path id="Vector_16" d="M186.91 369.77C186.094 368.439 185.819 366.847 186.14 365.32C186.199 364.895 186.31 364.478 186.47 364.08L236.27 392.98C237.086 394.311 237.361 395.903 237.04 397.43C236.983 397.857 236.869 398.274 236.7 398.67L186.91 369.77Z" fill="#D5DBF0"/>
<path id="Vector_17" d="M351.51 388.9C351.411 388.885 351.316 388.851 351.23 388.8L272.76 343.25C271.18 342.33 269.38 337.78 270.17 332.74C270.75 329.03 272.29 327.74 272.65 327.74C272.748 327.754 272.84 327.792 272.92 327.85L351.4 373.39C352.98 374.31 354.78 378.86 353.99 383.9C353.4 387.7 351.87 388.9 351.51 388.9Z" fill="#B0B0AF"/>
<g id="Vector_18" style="mix-blend-mode:multiply">
<path d="M161.48 194.74L519.38 402.47L492.37 574.59L132.95 365.99L161.48 194.74Z" fill="#E6E4F3"/>
</g>
</g>
<g id="Window2">
<path id="Vector_19" d="M422.65 801.94L35.3301 577.15L62.3601 405.03L449.68 629.82L422.65 801.94Z" fill="white"/>
<path id="Vector_20" d="M360.49 721.7C361.036 718.315 362.403 715.114 364.471 712.379C366.539 709.643 369.245 707.456 372.354 706.008C375.462 704.56 378.878 703.895 382.303 704.071C385.727 704.248 389.057 705.26 392 707.02L396.26 709.59C401.571 712.8 405.807 717.518 408.427 723.144C411.047 728.77 411.932 735.049 410.97 741.18L410.86 741.9C410.328 745.293 408.969 748.503 406.903 751.247C404.838 753.991 402.129 756.185 399.016 757.635C395.903 759.086 392.481 759.748 389.051 759.564C385.622 759.38 382.29 758.355 379.35 756.58L375.72 754.39C370.222 751.069 365.838 746.187 363.125 740.365C360.413 734.543 359.495 728.045 360.49 721.7V721.7Z" fill="#5BBDB0"/>
<path id="Vector_21" d="M396.45 734.15L388.77 730.18L390.11 721.52L386.27 719.54L384.94 728.2L377.26 724.24L376.59 728.58L384.27 732.54L382.93 741.21L386.77 743.19L388.11 734.52L395.78 738.48L396.45 734.15Z" fill="white"/>
<path id="Vector_22" d="M130.26 632.25L35.3301 577.15L62.3601 405.03L157.29 460.13L130.26 632.25Z" fill="#6BC0AA"/>
<path id="Vector_23" d="M198.47 545.53C198.369 545.517 198.273 545.479 198.19 545.42L166.55 527.06C164.96 526.14 163.17 521.59 163.96 516.55C164.55 512.84 166.08 511.6 166.44 511.6C166.539 511.615 166.634 511.649 166.72 511.7L198.36 530.07C199.94 530.99 201.74 535.54 200.94 540.57C200.36 544.29 198.83 545.53 198.47 545.53Z" fill="#B0B0AF"/>
<path id="Vector_24" d="M325.04 618.99C324.942 618.976 324.85 618.938 324.77 618.88L293.11 600.52C291.53 599.6 289.74 595.05 290.53 590.01C291.11 586.3 292.64 585.01 293 585.01C293.099 585.024 293.195 585.058 293.28 585.11L324.92 603.48C326.51 604.4 328.3 608.95 327.51 613.99C326.94 617.75 325.4 618.99 325.04 618.99Z" fill="#B0B0AF"/>
<path id="Vector_25" d="M184.11 614.9C183.295 613.569 183.016 611.979 183.33 610.45C183.396 610.025 183.51 609.609 183.67 609.21L206.88 622.68C207.695 624.011 207.974 625.601 207.66 627.13C207.594 627.555 207.48 627.971 207.32 628.37L184.11 614.9Z" fill="#D5DBF0"/>
<path id="Vector_26" d="M251.88 624.9C251.064 623.569 250.789 621.977 251.11 620.45C251.171 620.024 251.286 619.608 251.45 619.21L265.8 627.54C266.616 628.871 266.891 630.463 266.57 631.99C266.511 632.415 266.4 632.832 266.24 633.23L251.88 624.9Z" fill="#D5DBF0"/>
<path id="Vector_27" d="M285.67 644.33C284.854 643.004 284.575 641.415 284.89 639.89C284.955 639.462 285.069 639.042 285.23 638.64L335.02 667.54C335.834 668.871 336.113 670.461 335.8 671.99C335.734 672.415 335.62 672.831 335.46 673.23L285.67 644.33Z" fill="#D5DBF0"/>
<path id="Vector_28" d="M270.62 587.4C270.519 587.388 270.422 587.35 270.34 587.29L219.71 557.9C218.13 556.98 216.33 552.43 217.12 547.39C217.71 543.68 219.24 542.39 219.6 542.39C219.7 542.405 219.796 542.443 219.88 542.5L270.51 571.9C272.09 572.82 273.88 577.37 273.09 582.41C272.51 586.16 270.97 587.4 270.62 587.4Z" fill="#B0B0AF"/>
<g id="Vector_29" style="mix-blend-mode:multiply">
<path d="M484.07 627.38L457.03 799.48L95.5801 589.72L103.08 544.85L107.22 519.89L113.93 480.19L124.13 418.88L124.18 418.54L484.07 627.38Z" fill="#E6E4F3"/>
</g>
</g>
<g id="Window3">
<path id="Vector_30" d="M387.32 1026.84L0 802.06L27.04 629.94L414.36 854.72L387.32 1026.84Z" fill="white"/>
<path id="Vector_31" d="M320.77 942.69C321.316 939.305 322.683 936.104 324.751 933.369C326.819 930.633 329.525 928.446 332.634 926.998C335.742 925.549 339.158 924.885 342.583 925.061C346.007 925.238 349.337 926.25 352.28 928.01L356.53 930.58C361.844 933.788 366.081 938.506 368.701 944.133C371.321 949.759 372.205 956.039 371.24 962.17L371.13 962.89C370.598 966.283 369.239 969.493 367.173 972.237C365.108 974.981 362.399 977.175 359.286 978.625C356.173 980.076 352.751 980.738 349.321 980.554C345.892 980.37 342.56 979.345 339.62 977.57L335.99 975.38C330.493 972.059 326.11 967.176 323.399 961.354C320.688 955.532 319.773 949.034 320.77 942.69V942.69Z" fill="#5BBDB0"/>
<path id="Vector_32" d="M356.72 955.14L349.05 951.17L350.39 942.51L346.55 940.53L345.21 949.19L337.53 945.23L336.86 949.57L344.54 953.53L343.2 962.2L347.04 964.18L348.38 955.51L356.06 959.47L356.72 955.14Z" fill="white"/>
<path id="Vector_33" d="M94.93 857.15L0 802.06L27.04 629.94L121.97 685.03L94.93 857.15Z" fill="#9AD2CC"/>
<path id="Vector_34" d="M288.45 843.16C288.349 843.147 288.253 843.109 288.17 843.05L237.54 813.67C235.96 812.75 234.17 808.2 234.96 803.16C235.54 799.45 237.07 798.16 237.43 798.16C237.529 798.174 237.625 798.208 237.71 798.26L288.34 827.65C289.92 828.57 291.72 833.11 290.92 838.15C290.34 841.9 288.81 843.16 288.45 843.16Z" fill="#B0B0AF"/>
<path id="Vector_35" d="M276.64 884.16C275.824 882.829 275.549 881.237 275.87 879.71C275.929 879.285 276.04 878.868 276.2 878.47L299.42 891.9C300.234 893.231 300.509 894.823 300.19 896.35C300.128 896.776 300.014 897.192 299.85 897.59L276.64 884.16Z" fill="#D5DBF0"/>
<path id="Vector_36" d="M122.26 796.23C121.445 794.899 121.169 793.307 121.49 791.78C121.547 791.353 121.661 790.936 121.83 790.54L136.18 798.87C136.996 800.201 137.271 801.793 136.95 803.32C136.893 803.747 136.779 804.164 136.61 804.56L122.26 796.23Z" fill="#D5DBF0"/>
<path id="Vector_37" d="M173.36 854.56C172.544 853.229 172.269 851.637 172.59 850.11C172.649 849.685 172.76 849.268 172.92 848.87L187.28 857.2C188.096 858.531 188.371 860.123 188.05 861.65C187.988 862.076 187.874 862.492 187.71 862.89L173.36 854.56Z" fill="#D5DBF0"/>
<path id="Vector_38" d="M152.64 813.9C151.825 812.569 151.546 810.979 151.86 809.45C151.926 809.025 152.04 808.609 152.2 808.21L191.87 831.21C192.685 832.541 192.961 834.133 192.64 835.66C192.581 836.085 192.47 836.502 192.31 836.9L152.64 813.9Z" fill="#D5DBF0"/>
<path id="Vector_39" d="M115.39 821.31C114.576 819.979 114.301 818.387 114.62 816.86C114.677 816.433 114.791 816.016 114.96 815.62L154.62 838.62C155.441 839.948 155.72 841.542 155.4 843.07C155.334 843.495 155.22 843.911 155.06 844.31L115.39 821.31Z" fill="#D5DBF0"/>
<path id="Vector_40" d="M210.61 846.9C209.794 845.569 209.519 843.977 209.84 842.45C209.899 842.025 210.01 841.608 210.17 841.21L259.97 870.11C260.785 871.441 261.061 873.033 260.74 874.56C260.683 874.987 260.569 875.404 260.4 875.8L210.61 846.9Z" fill="#D5DBF0"/>
<path id="Vector_41" d="M212.5 799.08C212.404 799.066 212.312 799.032 212.23 798.98L133.75 753.43C132.17 752.51 130.38 747.96 131.17 742.92C131.75 739.21 133.28 737.92 133.64 737.92C133.741 737.934 133.837 737.971 133.92 738.03L212.4 783.57C213.98 784.49 215.77 789.04 214.98 794.08C214.4 797.84 212.86 799.08 212.5 799.08Z" fill="#B0B0AF"/>
<g id="Vector_42" style="mix-blend-mode:multiply">
<path d="M448.74 852.27L421.7 1024.4L58.23 813.44L70.33 741.3L77.6 697.65L86.84 642.23L448.74 852.27Z" fill="#E6E4F3"/>
</g>
</g>
</g>
</g>
</g>
<defs>
<linearGradient id="paint0_linear_0_1" x1="122.99" y1="980.6" x2="801.36" y2="980.6" gradientUnits="userSpaceOnUse">
<stop offset="0.12" stop-color="#6E6E6E"/>
<stop offset="1" stop-color="white"/>
</linearGradient>
<linearGradient id="paint1_linear_0_1" x1="215.65" y1="571.26" x2="759.71" y2="571.26" gradientUnits="userSpaceOnUse">
<stop stop-color="white"/>
<stop offset="1" stop-color="#158681"/>
</linearGradient>
<linearGradient id="paint2_linear_0_1" x1="51.78" y1="591.12" x2="595.83" y2="591.12" gradientUnits="userSpaceOnUse">
<stop stop-color="#01706D"/>
<stop offset="1" stop-color="#167368"/>
</linearGradient>
<linearGradient id="paint3_linear_0_1" x1="174.79" y1="201.76" x2="595.83" y2="201.76" gradientUnits="userSpaceOnUse">
<stop stop-color="#046267"/>
<stop offset="0.61" stop-color="#20947A"/>
<stop offset="0.94" stop-color="#20947A"/>
</linearGradient>
<clipPath id="clip0_0_1">
<rect width="806.71" height="1204.8" fill="white"/>
</clipPath>
</defs>
</svg>
