<svg width="460" height="512" viewBox="0 0 460 512" fill="none" xmlns="http://www.w3.org/2000/svg">
<path d="M230.036 265.869C303.179 265.869 362.97 206.078 362.97 132.934C362.97 59.7911 303.179 0 230.036 0C156.892 0 97.1023 59.7911 97.1023 132.934C97.1023 206.078 156.893 265.869 230.036 265.869Z" fill="#229379"/>
<path d="M458.172 372.1C454.689 363.392 450.046 355.266 444.821 347.719C418.118 308.244 376.903 282.122 330.463 275.737C324.659 275.157 318.273 276.317 313.629 279.8C289.248 297.796 260.223 307.083 230.037 307.083C199.85 307.083 170.826 297.796 146.444 279.8C141.8 276.317 135.414 274.576 129.61 275.737C83.17 282.122 41.3745 308.244 15.2523 347.719C10.0278 355.266 5.38337 363.973 1.90115 372.1C0.160037 375.583 0.740037 379.647 2.48115 383.13C7.12559 391.257 12.93 399.384 18.1545 406.35C26.2811 417.38 34.9889 427.248 44.8578 436.536C52.9845 444.662 62.2723 452.209 71.5612 459.756C117.42 494.006 172.568 512 229.457 512C286.346 512 341.493 494.005 387.352 459.756C396.64 452.79 405.928 444.662 414.056 436.536C423.343 427.248 432.631 417.379 440.759 406.35C446.563 398.803 451.789 391.257 456.432 383.13C459.333 379.647 459.913 375.582 458.172 372.1Z" fill="#229379"/>
</svg>
